<?xml version="1.0" standalone="no"?>
<!DOCTYPE svg PUBLIC "-//W3C//DTD SVG 20010904//EN"
 "http://www.w3.org/TR/2001/REC-SVG-20010904/DTD/svg10.dtd">
<svg version="1.0" xmlns="http://www.w3.org/2000/svg"
 width="512.000000pt" height="512.000000pt" viewBox="0 0 512.000000 512.000000"
 preserveAspectRatio="xMidYMid meet">

<g transform="translate(0.000000,512.000000) scale(0.100000,-0.100000)"
fill="#000000" stroke="none">
<path d="M1675 2338 c-28 -16 -35 -28 -35 -64 0 -52 53 -83 100 -59 52 27 49
105 -6 125 -31 12 -34 12 -59 -2z"/>
<path d="M1945 2325 c-46 -45 -19 -118 43 -118 69 0 99 80 46 122 -35 27 -59
26 -89 -4z"/>
<path d="M2245 2338 c-28 -16 -35 -28 -35 -64 0 -52 53 -83 100 -59 52 27 49
105 -6 125 -31 12 -34 12 -59 -2z"/>
<path d="M2515 2325 c-46 -45 -19 -118 43 -118 69 0 99 80 46 122 -35 27 -59
26 -89 -4z"/>
<path d="M2815 2338 c-28 -16 -35 -28 -35 -64 0 -52 53 -83 100 -59 52 27 49
105 -6 125 -31 12 -34 12 -59 -2z"/>
<path d="M3085 2325 c-46 -45 -19 -118 43 -118 69 0 99 80 46 122 -35 27 -59
26 -89 -4z"/>
<path d="M3385 2338 c-28 -16 -35 -28 -35 -64 0 -52 53 -83 100 -59 52 27 49
105 -6 125 -31 12 -34 12 -59 -2z"/>
</g>
</svg>
